<?xml version="1.0" standalone="no"?>
<!DOCTYPE svg PUBLIC "-//W3C//DTD SVG 20010904//EN"
 "http://www.w3.org/TR/2001/REC-SVG-20010904/DTD/svg10.dtd">
<svg version="1.0" xmlns="http://www.w3.org/2000/svg"
 width="700.000000pt" height="700.000000pt" viewBox="0 0 700.000000 700.000000"
 preserveAspectRatio="xMidYMid meet">
<metadata>
Created by potrace 1.11, written by Peter Selinger 2001-2013
</metadata>
<g transform="translate(0.000000,700.000000) scale(0.100000,-0.100000)"
fill="#000000" stroke="none">
<path d="M2347 5834 c-1 -1 -33 -4 -72 -7 -166 -13 -326 -108 -425 -252 -17
-24 -45 -79 -63 -122 l-32 -78 0 -500 0 -500 287 0 c187 0 289 3 291 10 1 5 2
202 2 438 l-1 427 1747 0 c1389 0 1748 -3 1751 -12 3 -11 2 -3434 -1 -3475 -1
-10 -358 -13 -1749 -13 l-1748 0 1 407 c0 225 -2 422 -3 438 l-4 31 -289 0
-289 0 0 -471 c1 -511 3 -536 57 -652 72 -155 232 -284 401 -323 40 -9 475
-12 1875 -12 1658 0 1828 1 1885 16 172 45 313 158 386 311 65 134 61 5 60
2015 0 1744 -1 1838 -18 1895 -46 153 -169 302 -300 364 -146 69 -2 64 -1969
65 -978 1 -1779 0 -1780 0z"/>
<path d="M2919 4660 c0 -3 -2 -133 -2 -290 l-2 -285 -1160 -1 c-638 -1 -1162
-2 -1166 -3 -3 -1 -5 -262 -5 -581 0 -520 1 -580 15 -581 9 0 534 -1 1166 -2
l1150 -2 1 -282 c0 -155 2 -285 5 -287 3 -3 266 256 584 574 l580 580 -583
582 c-320 321 -582 581 -583 578z"/>
</g>
</svg>
